<svg width="35" height="35" viewBox="0 0 35 35" fill="none" xmlns="http://www.w3.org/2000/svg">
<path d="M10.4153 30.5017C9.63612 30.5017 8.96887 30.224 8.41354 29.6687C7.8582 29.1134 7.58101 28.4466 7.58195 27.6684V9.25171C7.18057 9.25171 6.84387 9.11571 6.57187 8.84371C6.29987 8.57171 6.16434 8.23549 6.16529 7.83505C6.16529 7.43366 6.30129 7.09696 6.57329 6.82496C6.84529 6.55296 7.18151 6.41744 7.58195 6.41838H13.2486C13.2486 6.01699 13.3846 5.6803 13.6566 5.4083C13.9286 5.1363 14.2648 5.00077 14.6653 5.00171H20.332C20.7333 5.00171 21.07 5.13771 21.342 5.40971C21.614 5.68171 21.7496 6.01794 21.7486 6.41838H27.4153C27.8167 6.41838 28.1534 6.55438 28.4254 6.82638C28.6974 7.09838 28.8329 7.4346 28.832 7.83505C28.832 8.23644 28.696 8.57313 28.424 8.84513C28.152 9.11713 27.8157 9.25266 27.4153 9.25171V27.6684C27.4153 28.4475 27.1376 29.1148 26.5823 29.6701C26.027 30.2255 25.3602 30.5027 24.582 30.5017H10.4153ZM13.2486 23.4184C13.2486 23.8198 13.3846 24.1565 13.6566 24.4285C13.9286 24.7005 14.2648 24.836 14.6653 24.835C15.0667 24.835 15.4034 24.699 15.6754 24.427C15.9474 24.155 16.0829 23.8188 16.082 23.4184V13.5017C16.082 13.1003 15.946 12.7636 15.674 12.4916C15.402 12.2196 15.0657 12.0841 14.6653 12.085C14.2639 12.085 13.9272 12.221 13.6552 12.493C13.3832 12.765 13.2477 13.1013 13.2486 13.5017V23.4184ZM18.9153 23.4184C18.9153 23.8198 19.0513 24.1565 19.3233 24.4285C19.5953 24.7005 19.9315 24.836 20.332 24.835C20.7333 24.835 21.07 24.699 21.342 24.427C21.614 24.155 21.7496 23.8188 21.7486 23.4184V13.5017C21.7486 13.1003 21.6126 12.7636 21.3406 12.4916C21.0686 12.2196 20.7324 12.0841 20.332 12.085C19.9306 12.085 19.5939 12.221 19.3219 12.493C19.0499 12.765 18.9143 13.1013 18.9153 13.5017V23.4184Z" fill="#FF3333"/>
</svg>
