<svg width="33" height="34" viewBox="0 0 33 34" fill="none" xmlns="http://www.w3.org/2000/svg">
<path d="M26.2126 13.0236L20.5459 7.24858L22.4126 5.32358C22.9237 4.7965 23.5517 4.53296 24.2966 4.53296C25.0415 4.53296 25.669 4.7965 26.1793 5.32358L28.0459 7.24858C28.557 7.77567 28.8237 8.41183 28.8459 9.15708C28.8681 9.90233 28.6237 10.538 28.1126 11.0642L26.2126 13.0236ZM5.81259 29.6267C5.43481 29.6267 5.11792 29.4947 4.86192 29.2307C4.60592 28.9667 4.47836 28.6404 4.47925 28.2517V24.3673C4.47925 24.184 4.51259 24.0062 4.57925 23.8338C4.64592 23.6615 4.74592 23.507 4.87925 23.3705L18.6126 9.20796L24.2793 15.0517L10.5459 29.2142C10.4126 29.3517 10.2628 29.4548 10.0966 29.5236C9.93036 29.5923 9.75792 29.6267 9.57925 29.6267H5.81259Z" fill="#1D84B5"/>
</svg>
