<svg width="43" height="43" viewBox="0 0 43 43" fill="none" xmlns="http://www.w3.org/2000/svg">
<path d="M33.5931 35.6048L23.7931 25.8048C22.9181 26.5048 21.9118 27.059 20.7743 27.4673C19.6368 27.8757 18.4264 28.0798 17.1431 28.0798C13.9639 28.0798 11.2736 26.9785 9.07207 24.7758C6.87057 22.5732 5.76923 19.8828 5.76807 16.7048C5.76807 13.5257 6.8694 10.8353 9.07207 8.63383C11.2747 6.43233 13.9651 5.331 17.1431 5.32983C20.3222 5.32983 23.0126 6.43117 25.2141 8.63383C27.4156 10.8365 28.5169 13.5268 28.5181 16.7048C28.5181 17.9882 28.3139 19.1986 27.9056 20.3361C27.4972 21.4736 26.9431 22.4798 26.2431 23.3548L36.0868 33.1986C36.4077 33.5194 36.5681 33.9132 36.5681 34.3798C36.5681 34.8465 36.3931 35.2548 36.0431 35.6048C35.7222 35.9257 35.3139 36.0861 34.8181 36.0861C34.3222 36.0861 33.9139 35.9257 33.5931 35.6048ZM17.1431 24.5798C19.3306 24.5798 21.1902 23.8139 22.7221 22.2821C24.2539 20.7503 25.0192 18.8912 25.0181 16.7048C25.0181 14.5173 24.2521 12.6577 22.7203 11.1258C21.1885 9.594 19.3294 8.82867 17.1431 8.82983C14.9556 8.82983 13.0959 9.59575 11.5641 11.1276C10.0322 12.6594 9.2669 14.5185 9.26807 16.7048C9.26807 18.8923 10.034 20.752 11.5658 22.2838C13.0977 23.8157 14.9567 24.581 17.1431 24.5798Z" fill="#1F1F1F"/>
</svg>
